<svg width="172" height="47" viewBox="0 0 172 47" fill="none" xmlns="http://www.w3.org/2000/svg">
<g clip-path="url(#clip0_47_131)">
<path d="M0 0.0263635C4.05259 -0.0272698 8.21748 0.0178157 12.2793 0.0161177L33.1258 36.1557L26.9738 46.767L0 0.0263635Z" fill="#2D4AEC"/>
<path d="M40.7861 0.0621844C41.1883 0.00978079 42.0479 0.0241261 42.4677 0.0235992L45.3513 0.0221357C48.1905 0.019618 51.1708 -0.02857 54 0.03449C52.0309 3.43212 50.0829 6.89029 48.0845 10.265C46.7525 10.2419 45.3847 10.2622 44.048 10.2567C43.2739 10.2535 41.9401 10.2221 41.2006 10.3342C40.6005 10.4228 40.0202 10.6121 39.4833 10.894C38.1969 11.5721 37.2431 12.7463 36.8426 14.1446C36.5739 15.0675 36.5604 16.0464 36.804 16.9764C37.0628 17.9449 37.8427 19.1914 38.3556 20.093C39.0354 21.271 39.7035 22.4556 40.3592 23.647C39.6256 25.042 38.519 26.8489 37.7145 28.2442C36.6277 30.1443 35.5311 32.0386 34.4244 33.9272L30.0372 26.1467C29.2748 24.7936 28.0628 22.7959 27.5165 21.4406C26.9673 20.0738 26.6131 18.6362 26.465 17.1705C26.0516 13.053 27.2958 8.94053 29.9224 5.74286C32.7019 2.36426 36.4609 0.481824 40.7861 0.0621844Z" fill="#2D4AEC"/>
<path d="M83.8942 0.390278H88.466L80.7162 16.782C77.7612 22.8034 69.7327 22.887 66.8056 16.782L59 0.390278H63.6555L70.5411 14.9421C72.1022 17.8971 75.3917 17.8971 76.9528 14.9421L83.8942 0.390278Z" fill="#2D4AEC"/>
<path d="M89.6935 4.51608V0.390278H97.9451C101.653 0.390278 104.301 1.36597 106.197 2.95496C110.573 6.66261 110.657 13.9385 107.005 17.8971C105.137 19.8206 102.405 21.1587 98.3354 21.298C97.9451 21.298 97.6942 21.298 97.6106 21.298H89.6935V17.1444H97.6106C97.9451 17.1444 98.1681 17.1444 98.1681 17.1444C101.012 17.0607 102.879 16.2523 103.994 15.0536C106.197 12.6004 105.862 8.22372 103.52 6.13295C102.405 5.12937 100.593 4.51608 97.9451 4.51608H89.6935Z" fill="#2D4AEC"/>
<path d="M112.168 0.390278H116.321V21.3259H112.168V0.390278Z" fill="#2D4AEC"/>
<path d="M129.084 0C135.077 0 140.012 5.01786 140.012 10.7327C140.012 16.8377 134.854 21.5768 129.084 21.5768C122.951 21.5768 118.128 16.559 118.128 10.7327C118.128 4.65546 123.369 0 129.084 0ZM129.084 4.15368C125.376 4.15368 122.254 7.1644 122.254 10.7327C122.254 14.6633 125.599 17.3953 129.084 17.3953C132.847 17.3953 135.886 14.3567 135.886 10.7327C135.886 6.9135 132.457 4.15368 129.084 4.15368Z" fill="#2D4AEC"/>
<path d="M80.7998 29.9393H72.381V46.7491H68.2552V29.9393H59.8642V25.8135H80.7998V29.9393Z" fill="#2D4AEC"/>
<path d="M93.2021 25.4232C99.1956 25.4232 104.13 30.441 104.13 36.1558C104.13 42.2609 98.9726 47 93.2021 47C87.0691 47 82.2464 41.9821 82.2464 36.1558C82.2464 30.0786 87.4873 25.4232 93.2021 25.4232ZM93.2021 29.5769C89.4944 29.5769 86.3722 32.5876 86.3722 36.1558C86.3722 40.0865 89.7174 42.8184 93.2021 42.8184C96.9655 42.8184 100.004 39.7798 100.004 36.1558C100.004 32.3367 96.5752 29.5769 93.2021 29.5769Z" fill="#2D4AEC"/>
<path d="M122.908 25.8135H127.09V36.4067C127.09 50.4289 105.819 50.0386 105.819 36.4067V25.8135H109.973V36.4067C109.973 45.0486 122.908 44.6862 122.908 36.4067V25.8135Z" fill="#2D4AEC"/>
<path d="M140.257 25.4232C143.296 25.4232 145.972 26.6498 148.035 28.5733C149.401 29.9393 150.405 31.6119 150.906 33.5354H146.474C146.167 32.7548 145.666 32.0858 145.08 31.5283C143.881 30.3295 142.181 29.5769 140.257 29.5769C138.362 29.5769 136.661 30.3295 135.463 31.5283C134.236 32.727 133.483 34.3717 133.483 36.1558C133.483 38.0236 134.236 39.6962 135.463 40.8949C136.661 42.1494 138.362 42.8184 140.257 42.8184C142.181 42.8184 143.881 42.1494 145.08 40.8949C145.666 40.3374 146.167 39.6405 146.474 38.9435H150.906C150.405 40.8113 149.401 42.5118 148.035 43.8778C145.972 45.8013 143.296 47 140.257 47C137.191 47 134.543 45.8013 132.535 43.8778C130.556 41.8706 129.302 39.1944 129.302 36.1558C129.302 33.2287 130.556 30.4968 132.535 28.5733C134.543 26.6498 137.191 25.4232 140.257 25.4232Z" fill="#2D4AEC"/>
<path d="M170.86 36.1837C171.808 37.3546 172.449 38.7484 172.477 40.3374V46.7491H168.295V40.3374C168.212 39.2223 167.292 38.3581 166.177 38.3581C163.724 38.3581 161.187 38.3581 158.734 38.3581C157.563 38.3581 156.671 39.2223 156.643 40.3374V46.7491H152.461V40.3374C152.489 38.7484 153.102 37.3546 154.106 36.1837C153.214 35.2638 152.378 33.5354 152.461 32.1694V25.8135H156.643V32.2809C156.754 33.3403 157.646 34.1766 158.734 34.1766C161.187 34.1766 163.724 34.1766 166.177 34.1766C167.236 34.1766 168.184 33.3403 168.295 32.2809V25.8135H172.449V32.1694C172.561 33.5354 171.724 35.2638 170.86 36.1837Z" fill="#2D4AEC"/>
</g>
<defs>
<clipPath id="clip0_47_131">
<rect width="172" height="47" fill="white"/>
</clipPath>
</defs>
</svg>
